<svg xmlns="http://www.w3.org/2000/svg" viewBox="0 0 800 800"><defs>
	<style xmlns="http://www.w3.org/2000/svg">.cls-1{fill:#fefefe;}.cls-2{fill:#526484;}.cls-3{fill:#526484;}.cls-4{fill:#526484;}.cls-5{fill:#526484;}.cls-6{fill:#526484;}.cls-7{fill:#fdfdfe;}.cls-8{fill:#526484;}.cls-9{fill:#526484;}.cls-10{fill:#526484;}.cls-11{fill:#526484;}.cls-12{fill:#f8f5fe;}.cls-13{fill:#fbfafe;}.cls-14{fill:#f5f1fe;}</style>
</defs><g id="Layer_2" data-name="Layer 2"><g id="Layer_1-2" data-name="Layer 1"><path class="cls-1" d="M799.39,471.32c0,103.19-.39,206.39.42,309.58.12,15.5-3.44,19.93-19.15,19-24.84-1.5-49.84-.4-74.78-.4-10.61-12-9.31-26.85-9.47-41.2-.44-39,.36-77.95-2.78-116.95-4.08,30.93-2.33,62-3.33,93C689,774.1,680,783.75,639.6,783.91q-238.36,1-476.75,0c-42.43-.15-51.86-9.56-52.26-51.07q-1.12-117.6,0-235.21c.31-41.39,7-47.54,49.92-48.08,46.74-.58,93.48.17,140.22-.27,52-.48,64.77-12.75,65.08-63.84.51-84.6-.13-169.19.27-253.79.22-48,5.78-53.28,53.75-53.68,23.89-.2,47.77-.06,71.66.21,24.31.27,36.06,11.82,36.6,36,.69,30.95.46,61.89.43,92.84,0,21.84,9.15,32.07,31.65,31.86,30.11-.28,60.26-.83,90.36.35,31.41,1.24,37.95,7.87,39.62,39,1.1,20.6.26,41.26.43,61.89.16,20.06-.55,40.17,3,60.14,2.89-51.15,3.81-102.27,1.7-153.4-.64-15.52-10-26.78-20.35-37.18C634,168.61,592.57,128,551.6,87c-14.91-14.93-32.22-21.32-53.14-21.08-29.08.32-58.17,0-87.25,0-21,0-38.84-4-48-26.16C356,22.23,340.05,17.1,322.4,16.93c-89.32-.88-178.65-.2-268-.5-19.81-.06-33.95,15.13-53,15.28C-4,5.78,5.92-.13,32.46,0,280.17,1.26,527.89,1,775.6.34,793.88.3,800.17,3,800,23.45c-1.16,139-.61,277.94-.61,416.91-7.42,2.74-11.39-3-16-6.66-19-14.76-37.57-11.65-53.38,3.63-72.91,70.43-145.32,141.42-215.49,214.55-18,18.72-26,44.35-35.52,68.35-1.84,4.63-5.24,9.67-.73,14.18,4.21,4.21,10,3,14.59.74,27.58-13.85,57.49-22.93,80.26-46,67.57-68.47,136.43-135.68,204.54-203.62C783.69,479.46,787.36,468.76,799.39,471.32Z"/><path class="cls-2" d="M1.44,31.71C13.66,12.29,31.07,6.24,54.07,6.51q132.33,1.57,264.7.08c29.38-.32,52,5.83,56.42,38.69,1.94,14.36,11.93,11.83,20.71,11.89,38.41.24,76.84.86,115.22-.21,18-.51,31.28,4.6,44,17.57,44.12,45.11,89.22,89.27,134.14,133.6,9.74,9.62,17.64,18.76,17.38,34.26-.9,54.63-.17,109.29-.53,163.93-.06,9.3,4,22.58-12.88,22.56-16.53,0-13.21-12.94-13.28-22.48-.34-45.36-.75-90.74.12-136.09.33-17.34-5.47-23.82-23.25-23.3-35.27,1-70.63-.82-105.86.68-23.91,1-34-6-32.52-31.42,2-35-.58-70.13.92-105.13.84-19.59-6.26-24.89-25-24.1C463.27,88.36,432,88.58,401,87c-20.75-1.06-26.23,6.23-26,26.22.94,94.85.48,189.71.39,284.57,0,46.32-14.39,60.45-61.42,60.55-56,.13-112.12.68-168.16-.32-18.88-.33-25.19,5.53-25,24.58q1.24,133,0,266c-.17,19.35,7.48,24.76,25.79,24.71q253.82-.63,507.63.11c21.43.08,26.45-8.72,25.85-27.85-1.09-34-1-68.06.11-102,.33-10.37-8.3-27.86,12.12-29,21.71-1.17,13.45,17.05,13.59,27.21.71,52.57.14,105.16,0,157.74H95c-11.32-13-9.41-29-9.45-44.26-.25-82.49-.71-165,.24-247.46.3-26.09-6.18-41.05-35.87-40.7-22.57.28-39.11-12-48.43-32.89Z"/><path class="cls-1" d="M1.44,434.17c17.23,18.51,38.09,27.93,63.74,24.11,22.91-3.42,30.24,4.87,30,28.6-1.2,104.19-.32,208.4-.2,312.6-24.93,0-49.94-1.1-74.78.4-15.71,1-19.24-3.49-19.14-19C1.79,665.33,1.44,549.75,1.44,434.17Z"/><path class="cls-3" d="M799.39,471.32c-78.6,79-156.51,158.64-236.26,236.45-20.61,20.1-50.71,27.2-77.31,38-14,5.7-22.72-5.41-17.13-18.78,12.59-30.1,21.84-62.19,46.18-86.3,68.23-67.58,136.12-135.5,204.45-203,31.32-30.93,50-30,80.07,2.65Z"/><path class="cls-3" d="M307.74,482.71C376,480,440.71,533.77,442,615.76,443.08,687.7,376,750.58,305.5,749A133.76,133.76,0,0,1,174.57,615.14C174.26,538.73,230.76,482.55,307.74,482.71Z"/><path class="cls-4" d="M557.42,365.71c-19.7,0-39.41-.19-59.11.07-10.87.15-18-2.84-18-15.36s7.33-15.25,18.11-15.2q62.22.28,124.44,0c10.91,0,18.88,3.82,18.87,15.34s-8.18,15.31-19,15.2C601,365.56,579.2,365.71,557.42,365.71Z"/><path class="cls-4" d="M558.64,471.12c-19.7,0-39.4-.08-59.11.06-10.08.07-18.74-.83-19.13-14.09-.35-11.95,5.14-16.51,16.81-16.45,42.52.25,85,.12,127.56.1,9.63,0,16.4,4.15,16.9,14,.57,11.59-6.61,16.36-17.69,16.34Q591.31,471.06,558.64,471.12Z"/><path class="cls-3" d="M559.38,416.3c-20.62,0-41.25,0-61.87,0-8.73,0-16.53-.95-16.78-12.68s6.92-13.41,16-13.42q63.42,0,126.85-.06c9.84,0,19.13.58,18.37,14.29-.65,11.86-9.22,11.86-17.64,11.9C602.7,416.4,581,416.32,559.38,416.3Z"/><path class="cls-3" d="M559.25,310.66c-20.63,0-41.26,0-61.89,0-8.71,0-16.57-.78-16.68-12.66-.11-11.46,6.88-13.49,16.05-13.49q63.43,0,126.88-.06c10,0,19,1.1,18.35,14.55-.61,12-9.38,11.64-17.72,11.68C602.58,310.75,580.91,310.68,559.25,310.66Z"/><path class="cls-5" d="M455.79,456.61c-1.67,8.89-6.32,15.08-16.31,14C430,469.52,425,463.48,426,453.88c.9-8.18,6.58-12.65,14.52-12.73C450.29,441.06,455,447,455.79,456.61Z"/><path class="cls-5" d="M439.34,365.42c-8.75-1.92-14.64-6.9-13.31-16.67,1.29-9.5,7.78-14.1,17.27-12.81,8.17,1.11,12.55,7,12.24,14.85C455.17,360.25,449.49,365.31,439.34,365.42Z"/><path class="cls-6" d="M440.36,416.24c-9.72.26-15.25-3.37-14.76-14.11.42-9.34,5.78-11.86,13.86-12,8.86-.11,16.12,1.24,16.35,12.6C456,413.79,449.63,416.45,440.36,416.24Z"/><path class="cls-6" d="M455.68,298c.45,11.47-7.15,12.76-16,12.67-8-.09-13.66-2-14.06-11.61-.45-10.54,4.71-14.53,14.52-14.57C449.34,284.46,456.12,287.09,455.68,298Z"/><path class="cls-7" d="M344.91,233.05c0,56.67-.51,113.35.29,170,.25,18.22-5.19,25.59-24.71,25.41q-132.26-1.2-264.54,0c-20.61.21-28-7.93-27.94-27q.21-170-.1-340c-.05-19.28,7.91-28.35,27.78-28.28q130.71.45,261.43,0c21.13-.08,28.67,8.51,28.21,29.8C344.11,119.69,344.91,176.37,344.91,233.05Z"/><path class="cls-1" d="M549.24,112.7l100,104.18c-28.23,0-59.19.56-90.12-.28-12.11-.32-9.62-11.36-9.71-19C549.06,170.93,549.24,144.28,549.24,112.7Z"/><path class="cls-1" d="M515,700.34c2.93-16.89,8.85-27.17,18-36.18,48.41-47.76,96.47-95.86,145-143.53,5.82-5.72,11.25-17.78,22.4-8.08,12.92,11.24.41,18-6.21,24.66C646,585.31,597.62,633.07,549.48,681.1,540.57,690,530.29,695.8,515,700.34Z"/><path class="cls-1" d="M755.51,446.7c10.75-.28,13.76,4.16,12.87,11.59-.64,5.42-3.58,10.69-9.1,10.56-6.52-.14-11.74-5.41-12.93-11.49C744.74,449.12,753,449,755.51,446.7Z"/><path class="cls-1" d="M717.53,480.66c11.62,0,13.42,7.53,18.77,12.69C724,498.46,721,491.36,717.53,480.66Z"/><path class="cls-1" d="M305.24,719c-56-.83-104.93-50.54-104.09-105.73.83-54.83,52-104.78,106.68-104.2,56.06.6,105.08,49.72,105,105.26C412.82,672.16,363.79,719.84,305.24,719Z"/><path class="cls-8" d="M186.78,141.74c-39.41,0-78.83-.67-118.22.27-20.35.48-30.3-4.72-29.74-27.62,2-82.9-9.72-69,68-69.79,67.4-.7,134.82.4,202.22-.47,19.78-.26,28.27,5.77,27.86,26.29-1.72,86.68,10.61,69.55-69.21,71.23C240.72,142.22,213.74,141.74,186.78,141.74Z"/><path class="cls-9" d="M93.51,416.37c-32.22-.2-41.06-8.55-41.41-39.14-.34-30.09,12.05-42.11,43.21-41.93,28.51.17,41.76,13.06,41.82,40.72C137.2,407.25,127.12,416.57,93.51,416.37Z"/><path class="cls-9" d="M94.5,323.92c-33.37,0-42.85-9.28-42.4-41.4.39-28.36,12.58-39.88,42.27-39.94,29.1-.07,42.3,12.24,42.76,39.87C137.65,314,127.44,323.94,94.5,323.92Z"/><path class="cls-9" d="M94,231.5c-31.89-.12-41.69-9.19-41.9-38.81S65.42,149.48,95,149.9c29.07.42,42.05,12.94,42.17,40.65C137.26,222,127.08,231.62,94,231.5Z"/><path class="cls-8" d="M227.52,285.42c-.23,33.3-6,38.7-40.79,38.48-32.3-.19-41.16-8.71-41.33-39.74-.17-30.15,12.47-42.07,44.07-41.56C219.8,243.08,227.75,252,227.52,285.42Z"/><path class="cls-8" d="M320.57,190.9c.23,34.67-5.18,40.35-38.68,40.58-33.69.24-42.68-7.61-43.18-37.7-.52-31.43,11.45-44,41.77-43.86C311.74,150.06,320.36,158.87,320.57,190.9Z"/><path class="cls-10" d="M227.52,375.86c.3,34.39-5.3,40.26-38.62,40.49-34.53.23-43.64-8.25-43.5-40.49.13-28.72,12.2-40.4,41.86-40.53C219.17,335.18,227.24,343.31,227.52,375.86Z"/><path class="cls-8" d="M227.52,191.61c.08,33.9-5.75,39.78-39.47,39.88s-43.11-9.17-42.66-41.65c.4-28.39,13.13-40.31,42.64-39.92C219,150.33,227.45,159.25,227.52,191.61Z"/><path class="cls-8" d="M320.57,285.85c-.31,33.27-5.78,38.35-41,38-32-.27-40.81-8.88-40.86-40.06,0-29.21,11.86-41.16,41.11-41.24C312.59,242.5,320.88,251.3,320.57,285.85Z"/><path class="cls-10" d="M320.56,377.47c-.22,32.86-6.62,39-40.74,38.88-32.36-.09-40.92-8.31-41.1-39.48-.17-30.44,11.87-41.91,43.64-41.54C313.32,335.69,320.78,343.93,320.56,377.47Z"/><path class="cls-11" d="M362.29,640.22c-1.85,14-8.4,25.2-20.86,32.35-7.91,4.53-16.83,6.66-21.91,15.94-4.95,9-18.08,8.26-21.29,3.1-8.36-13.47-23.52-16-33.68-25.67-5.85-5.54-13-12.9-7.84-21.22,6.05-9.76,16-6.72,24.7-2.37,3.63,1.83,6.5,6,10.19,6.72,12.95,2.55,32.24,8.25,35.92-5.9,4.59-17.62-17.39-12.74-26.94-14.79-21.76-4.67-41.8-11.34-46.14-34.67-4.24-22.75,12-35,31.74-42.74,9.59-3.76,12.47-26.93,24.22-16,15.36,14.32,39.13,18.85,47.77,40.27,1.34,3.32,1.23,10.65.78,10.74-6.95,1.27-14.88,3.93-21,1.76-11.38-4-20.68-13.48-34.41-11.23-8.25,1.35-18.25,1.76-18.89,11.64-.55,8.6,9.66,9.6,16.08,11.69,10.68,3.47,22.36.39,33.3,5.76C349.19,613,358.54,623.92,362.29,640.22Z"/><path class="cls-1" d="M189.33,112.14c-33.07,0-66.15-.4-99.2.2-13.76.25-20.72-3-20.66-18.64,0-15.22,6.24-19.13,20.35-19,66.13.47,132.27.57,198.4,0,15.62-.15,19,6.48,18.94,20.33s-5.8,17.58-18.63,17.37C255.47,111.78,222.39,112.14,189.33,112.14Z"/><path class="cls-12" d="M107.12,376.57c.61,8.81-3,13.55-12.45,13.28-7.3-.22-11.51-3.18-11.94-10.85-.5-9,3.31-13.35,12.6-13.1C102.57,366.09,107.35,368.47,107.12,376.57Z"/><path class="cls-13" d="M107.08,283.71c.55,8.07-1.85,13.45-11.32,13.63-8.64.16-13.11-3.23-13-12.13.1-6.78,2.25-11.63,10-11.91C100.21,273,107.18,273.62,107.08,283.71Z"/><path class="cls-1" d="M107,192.92c.25,11.29-6.61,12-14.23,11.78-7.9-.27-9.79-5.24-10-12-.26-9,4.15-12.42,12.9-12.23C105.14,180.67,108,185.68,107,192.92Z"/><path class="cls-13" d="M176.23,284c-.1-9.9,6.53-11,14.21-10.73s10,4.91,10.21,11.75c.22,8.85-4,12.48-12.77,12.35C178.55,297.25,175.61,292.31,176.23,284Z"/><path class="cls-13" d="M293.69,193.61c.18,9.61-5.94,11.41-13.88,11.16-10.14-.31-10.54-7.32-10.21-14.65.34-7.69,5.39-9.65,12.21-9.67C290.89,180.42,294.37,185.11,293.69,193.61Z"/><path class="cls-12" d="M191,389.73c-10.19.75-15-2.83-14.87-12.2.13-7.39,3.28-11.33,11.06-11.63,8.8-.34,13.94,2.7,13.51,12.24C200.36,385.24,197.86,390.13,191,389.73Z"/><path class="cls-1" d="M200.56,193.17c.52,9.54-5,11.93-13.38,11.62-7.48-.28-10.7-3.88-11-11.15-.33-8.54,2.8-13.12,12-13.19C197.27,180.39,201.23,184.38,200.56,193.17Z"/><path class="cls-12" d="M283,297.31c-9,.76-13.69-2.91-13.46-12.26.18-7.16,2.77-11.8,10.78-11.82,6.65,0,12.67.92,13.37,9.2C294.32,290.27,293.27,297.14,283,297.31Z"/><path class="cls-14" d="M280.9,365.94c9-.44,13.39,3.62,13,12.76-.35,7.43-4.11,11-11.55,11.25-9.21.37-13.09-4-12.88-12.93C269.62,369.4,273.34,365.82,280.9,365.94Z"/></g></g></svg>